<svg style="max-height: 500px" xml:space="preserve" xmlns:xlink="http://www.w3.org/1999/xlink" xmlns="http://www.w3.org/2000/svg" version="1.1" viewBox="0 0 67.124 67" width="67.124" height="67">
    <g transform="matrix(1,0,0,1,-14.388,-15.088)">
        <path style="fill:white;fill-rule:nonzero;stroke:black;stroke-width:0.44px;" d="M15.3,48.3C15.3,30.4 29.8,16 47.6,16C65.4,16 80,30.4 80,48.3C80,66.2 65.5,80.6 47.7,80.6C29.9,80.6 15.3,66.1 15.3,48.3Z"/>
    </g>
    <g transform="matrix(1,0,0,1,-14.388,-15.088)">
        <path style="fill:white;fill-rule:nonzero;" d="M17.6,48.3C17.6,31.8 31,18.4 47.5,18.4C64,18.4 77.4,31.8 77.4,48.3C77.4,64.8 64,78.2 47.5,78.2C31,78.2 17.6,64.8 17.6,48.3Z"/>
    </g>
    <g transform="matrix(1,0,0,1,-14.388,-15.088)">
        <path style="fill:none;fill-rule:nonzero;stroke:rgb(134,21,58);stroke-width:1.02px;" d="M103.1,72.5L357.7,72.5"/>
    </g>
    <g transform="matrix(1,0,0,1,-14.388,-15.088)">
        <path style="fill:rgb(134,21,58);fill-rule:nonzero;" d="M43.8,51.2C43.8,51.1 43.9,51.2 43.8,51.2C43.9,51.1 43.8,51.1 43.8,51.2Z"/>
    </g>
    <g transform="matrix(1,0,0,1,-14.388,-15.088)">
        <path style="fill:rgb(134,21,58);fill-rule:nonzero;" d="M77.6,48.3C77.6,31.8 64.2,18.4 47.7,18.4C40.1,18.4 33.3,21.2 28,25.8C23.1,33.2 24.5,44.3 32.4,49.5C34.6,50.9 39.7,52.4 43.8,51.2C44,51.1 44.2,51 44.5,50.9L44.6,50.8C46.5,49.6 47.6,47.1 46.5,45.8C46.9,45.7 48.9,44.5 47.2,43C47.1,42.9 46.8,42.6 46.7,42.5C49.5,43.6 49.6,48.4 45.2,50.6C45.1,50.6 45,50.7 44.9,50.7C44.7,50.8 44.6,50.8 44.4,50.9C44.3,50.9 44.2,51 44.1,51C40,52.9 35,52 31.5,50C24.5,46 22,37.3 24,30C20.1,35.1 17.7,41.4 17.7,48.3C17.7,52.8 18.7,57 20.5,60.8C25,68 32.7,72.4 41.4,70.9L43.8,70.3C36.7,73 30.3,71.6 25.2,68.1C30.7,74.3 38.7,78.3 47.6,78.3C50.4,78.3 53.1,77.9 55.6,77.2C62.8,74.8 68.2,70.4 70.9,65.7C82,46.5 70.5,35.9 62.4,32.6C61.8,32.4 61.3,32.2 60.7,32L60.6,31.9C61.2,32.1 61.8,32.3 62.4,32.5C73.6,36.2 78.1,46 76.4,56.3C77.2,53.8 77.6,51.1 77.6,48.3ZM37.2,72.4C42.4,72.8 48.9,69.6 52.3,66C50.1,67.3 47.7,68.6 45.3,68.9C44.4,69 43.9,68.6 43.1,68.7C42.3,68.8 40.1,69.8 39.5,70.3C42.9,67.4 44.2,64.1 49.1,63.9C52.3,63.8 56.3,66.2 58.3,60.7C57.2,69 44.7,75.5 37.2,72.4ZM53,30.6C55.6,30.9 58.3,31.3 60.4,32.5C61.2,33 61.4,33.6 62.1,34C62.8,34.4 65.2,34.9 66,34.9C61.5,35.2 58.6,37.2 54.5,34.3C51.8,32.4 50.1,27.9 45.2,31.3C50.9,25.1 64.8,27.3 69,34.6C65,31.1 57.8,29.7 53,30.6Z"/>
    </g>
    <g transform="matrix(1,0,0,1,-14.388,-15.088)">
        <path style="fill:white;fill-rule:nonzero;" d="M103.3,41L103.3,24.5L106.4,24.5L106.4,31.8L119.9,31.8L119.9,24.5L123,24.5L123,41L119.9,41L119.9,33.5L106.4,33.5L106.4,41L103.3,41Z"/>
    </g>
    <g transform="matrix(1,0,0,1,-14.388,-15.088)">
        <path style="fill:white;fill-rule:nonzero;" d="M130.3,32.8C130.3,27.7 137,24.2 144.9,24.2C153.1,24.2 159.5,27.9 159.5,32.7C159.5,37.5 153.1,41.2 144.9,41.2C136.6,41.3 130.3,37.5 130.3,32.8ZM133.5,32.8C133.5,36.7 138.5,39.7 145,39.7C151.6,39.7 156.5,36.6 156.5,32.8C156.5,29 151.7,25.9 145,25.9C138.4,25.9 133.5,28.9 133.5,32.8Z"/>
    </g>
    <g transform="matrix(1,0,0,1,-14.388,-15.088)">
        <path style="fill:white;fill-rule:nonzero;" d="M166.9,41L166.9,24.5L171.3,24.5L181.7,38.3L192,24.5L196.4,24.5L196.4,41L193.4,41L193.5,26.4L182.6,41L180.6,41L169.7,26.4L169.8,41L166.9,41Z"/>
    </g>
    <g transform="matrix(1,0,0,1,-14.388,-15.088)">
        <path style="fill:white;fill-rule:nonzero;" d="M206.3,24.5L221.8,24.5L221.8,26.1L209.4,26.1L209.4,31.8L221.7,31.8L221.7,33.4L209.4,33.4L209.4,39.3L221.8,39.3L221.8,41L206.3,41L206.3,24.5Z"/>
    </g>
    <g transform="matrix(1,0,0,1,-14.388,-15.088)">
        <path style="fill:white;fill-rule:nonzero;" d="M233.3,36.4C233.8,39.1 237.2,39.7 238.9,39.7C241.8,39.7 244.5,38.4 244.5,36.6C244.5,34.3 241.1,33.8 237.9,33.1C235.6,32.7 230.8,31.9 230.8,28.7C230.7,25.8 234.9,24.2 239.1,24.2C242.6,24.2 246.6,25.3 247,28.5L243.9,28.5C243.6,27.4 242.7,25.8 238.9,25.8C236.1,25.8 233.8,26.9 233.8,28.6C233.8,30.6 236.5,31.1 240.8,31.9C243.4,32.5 247.6,33.4 247.6,36.4C247.6,39.1 244.2,41.2 238.9,41.2C234.2,41.2 230.3,39.5 230.1,36.3L233.3,36.3L233.3,36.4Z"/>
    </g>
    <g transform="matrix(1,0,0,1,-14.388,-15.088)">
        <path style="fill:white;fill-rule:nonzero;" d="M261.3,26.2L254.3,26.2L254.3,24.6L271.3,24.6L271.3,26.2L264.4,26.2L264.4,41L261.3,41L261.3,26.2Z"/>
    </g>
    <g transform="matrix(1,0,0,1,-14.388,-15.088)">
        <path style="fill:white;fill-rule:nonzero;" d="M279.7,24.5L295.2,24.5L295.2,26.1L282.8,26.1L282.8,31.8L295.1,31.8L295.1,33.4L282.8,33.4L282.8,39.3L295.2,39.3L295.2,41L279.7,41L279.7,24.5Z"/>
    </g>
    <g transform="matrix(1,0,0,1,-14.388,-15.088)">
        <path style="fill:white;fill-rule:nonzero;" d="M305.2,41L301.8,41L313.5,24.5L316.5,24.5L328.1,41L324.7,41L321.4,36.4L308.3,36.4L305.2,41ZM314.9,26.6L309.3,34.9L320.5,34.9L314.9,26.6Z"/>
    </g>
    <g transform="matrix(1,0,0,1,-14.388,-15.088)">
        <path style="fill:white;fill-rule:nonzero;" d="M335.4,24.5L343.8,24.5C347.8,24.5 352,25 354.8,27C357.1,28.5 358.2,30.4 358.2,32.7C358.2,37.7 353.4,41 344,41L335.5,41L335.4,24.5ZM338.5,39.4L344.1,39.4C351.3,39.4 355,36.8 355,32.8C355,30.9 354.1,29.2 352.3,28C350.5,26.9 347.9,26.2 344.1,26.2L338.5,26.2L338.5,39.4Z"/>
    </g>
    <g transform="matrix(1,0,0,1,-14.388,-15.088)">
        <path style="fill:white;fill-rule:nonzero;" d="M102.8,51.7L104.4,51.7L107.5,58.6L110.5,51.7L111.7,51.7L114.8,58.6L117.9,51.7L119.5,51.7L115.6,59.8L114.1,59.8L111.1,53.2L108.1,59.8L106.6,59.8L102.8,51.7Z"/>
    </g>
    <g transform="matrix(1,0,0,1,-14.388,-15.088)">
        <path style="fill:white;fill-rule:nonzero;" d="M136.7,55.8C136.7,53.3 140,51.6 143.9,51.6C147.9,51.6 151.1,53.4 151.1,55.8C151.1,58.2 148,60 143.9,60C139.8,60 136.7,58.1 136.7,55.8ZM138.2,55.8C138.2,57.7 140.6,59.2 143.9,59.2C147.2,59.2 149.6,57.7 149.6,55.8C149.6,53.9 147.2,52.4 143.9,52.4C140.6,52.4 138.2,53.9 138.2,55.8Z"/>
    </g>
    <g transform="matrix(1,0,0,1,-14.388,-15.088)">
        <path style="fill:white;fill-rule:nonzero;" d="M168.8,55.8C168.8,53.3 172.1,51.6 176,51.6C180.1,51.6 183.2,53.4 183.2,55.8C183.2,58.2 180.1,60 176,60C171.9,60 168.8,58.1 168.8,55.8ZM170.3,55.8C170.3,57.7 172.7,59.2 176,59.2C179.3,59.2 181.7,57.7 181.7,55.8C181.7,53.9 179.3,52.4 176,52.4C172.7,52.4 170.3,53.9 170.3,55.8Z"/>
    </g>
    <g transform="matrix(1,0,0,1,-14.388,-15.088)">
        <path style="fill:white;fill-rule:nonzero;" d="M201.5,51.7L205.6,51.7C207.6,51.7 209.7,52 211,52.9C212.1,53.6 212.7,54.6 212.7,55.7C212.7,58.2 210.3,59.8 205.7,59.8L201.5,59.8L201.5,51.7ZM203.1,59L205.8,59C209.3,59 211.2,57.7 211.2,55.8C211.2,54.9 210.8,54 209.9,53.4C209,52.9 207.7,52.5 205.8,52.5L203.1,52.5L203.1,59Z"/>
    </g>
    <g transform="matrix(1,0,0,1,-14.388,-15.088)">
        <path style="fill:white;fill-rule:nonzero;" d="M229.2,51.7L230.8,51.7L233.9,58.6L236.9,51.7L238.1,51.7L241.2,58.6L244.3,51.7L245.9,51.7L242,59.8L240.5,59.8L237.6,53.2L234.6,59.8L233,59.8L229.2,51.7Z"/>
    </g>
    <g transform="matrix(1,0,0,1,-14.388,-15.088)">
        <path style="fill:white;fill-rule:nonzero;" d="M263.1,55.8C263.1,53.3 266.4,51.6 270.3,51.6C274.4,51.6 277.5,53.4 277.5,55.8C277.5,58.2 274.4,60 270.3,60C266.2,60 263.1,58.1 263.1,55.8ZM264.6,55.8C264.6,57.7 267,59.2 270.3,59.2C273.6,59.2 276,57.7 276,55.8C276,53.9 273.6,52.4 270.3,52.4C267,52.4 264.6,53.9 264.6,55.8Z"/>
    </g>
    <g transform="matrix(1,0,0,1,-14.388,-15.088)">
        <path style="fill:white;fill-rule:nonzero;" d="M295.6,51.7L299.3,51.7C301.5,51.7 302.5,51.9 303.2,52.1C304.3,52.5 305.1,53.4 305.1,54.3C305.1,54.9 304.9,55.4 304.3,55.9C303.5,56.6 302.5,56.7 301.2,56.8L304.6,59.8L302.9,59.8L299,56.2L299.4,56.2C300.4,56.2 301.7,56.2 302.5,55.8C303.2,55.4 303.5,54.9 303.5,54.3C303.5,53.7 303,53.1 302.1,52.7C301.4,52.4 300.5,52.4 299.3,52.4L297.1,52.4L297.1,59.7L295.6,59.7L295.6,51.7Z"/>
    </g>
    <g transform="matrix(1,0,0,1,-14.388,-15.088)">
        <path style="fill:white;fill-rule:nonzero;" d="M323.3,51.7L324.8,51.7L324.8,55.6L330.4,51.7L332.1,51.7L326.3,55.8L332.7,59.9L330.8,59.9L324.8,56L324.8,59.9L323.3,59.9L323.3,51.7Z"/>
    </g>
    <g transform="matrix(1,0,0,1,-14.388,-15.088)">
        <path style="fill:white;fill-rule:nonzero;" d="M351.1,57.6C351.3,59 353,59.2 353.9,59.2C355.3,59.2 356.7,58.5 356.7,57.7C356.7,56.6 355,56.3 353.4,56C352.3,55.8 349.9,55.4 349.9,53.8C349.9,52.4 351.9,51.6 354,51.6C355.7,51.6 357.7,52.2 357.9,53.7L356.4,53.7C356.2,53.2 355.8,52.4 354,52.4C352.6,52.4 351.5,52.9 351.5,53.8C351.5,54.8 352.8,55 354.9,55.4C356.2,55.7 358.3,56.1 358.3,57.6C358.3,58.9 356.6,60 354,60C351.7,60 349.8,59.1 349.7,57.6L351.1,57.6Z"/>
    </g>
    <g transform="matrix(1,0,0,1,-14.388,-15.088)">
        <path style="fill:white;fill-rule:nonzero;" d="M63,50.1C63,52 63,53.5 63.2,54.4C63.3,55 63.6,55.4 65,55.5C65.7,55.5 66.7,55.6 67.1,55.6C67.4,55.6 67.5,55.7 67.5,55.7C67.5,55.8 67.3,55.9 66.8,55.9C64.2,55.9 61.3,55.8 61.1,55.8C60.9,55.8 57.9,55.9 56.5,55.9C56,55.9 55.8,55.9 55.8,55.7C55.8,55.6 55.9,55.6 56.2,55.6C56.6,55.6 57.2,55.6 57.6,55.5C58.5,55.4 58.8,55 59,54.4C59.2,53.6 59.2,52 59.2,50.1L59.2,48C59.2,47.9 59.1,47.9 58.9,47.9L39,47.9C38.9,47.9 38.7,47.9 38.7,48L38.7,50.1C38.7,52 38.7,53.5 38.9,54.4C39,55 39.3,55.4 40.7,55.5C41.4,55.5 42.4,55.6 42.8,55.6C43.1,55.6 43.2,55.7 43.2,55.7C43.2,55.8 43,55.9 42.5,55.9C39.9,55.9 37,55.8 36.8,55.8C36.6,55.8 33.6,55.9 32.2,55.9C31.7,55.9 31.5,55.9 31.5,55.7C31.5,55.6 31.6,55.6 31.9,55.6C32.3,55.6 32.9,55.6 33.3,55.5C34.2,55.4 34.5,55 34.6,54.4C34.8,53.6 34.8,52 34.8,50.1L34.8,46.6C34.8,43.5 34.8,43 34.7,42.4C34.6,41.7 34.2,41.4 32.7,41.3C32.3,41.3 31.5,41.2 31.1,41.2C30.9,41.2 30.7,41.2 30.7,41.1C30.7,41 30.9,40.9 31.4,40.9C33.5,40.9 36.4,41 36.7,41C36.9,41 39.9,40.9 41.3,40.9C41.8,40.9 42,40.9 42,41.1C42,41.2 41.8,41.2 41.6,41.2C41.3,41.2 41,41.2 40.4,41.3C39.1,41.4 38.8,41.7 38.7,42.4C38.6,43 38.6,43.6 38.6,46.6L38.6,47C38.6,47.1 38.7,47.1 38.9,47.1L58.7,47.1C58.8,47.1 59,47.1 59,47L59,46.6C59,43.5 59,43 58.9,42.4C58.8,41.7 58.4,41.4 56.9,41.3C56.5,41.3 55.7,41.2 55.3,41.2C55.1,41.2 54.9,41.2 54.9,41.1C54.9,41 55.1,40.9 55.6,40.9C57.7,40.9 60.6,41 60.9,41C61.1,41 64.1,40.9 65.5,40.9C66,40.9 66.2,40.9 66.2,41.1C66.2,41.2 66,41.2 65.8,41.2C65.5,41.2 65.2,41.2 64.6,41.3C63.3,41.4 63,41.7 62.9,42.4C63,43 63,43.6 63,46.6L63,50.1Z"/>
    </g>
</svg>